<svg id="svg" version="1.1" width="400" height="79.05531385954009" viewBox="0 0 400 79.05531385954009" xmlns="http://www.w3.org/2000/svg" xmlns:xlink="http://www.w3.org/1999/xlink" ><g id="svgg"><path id="path0" d="M34.500 0.167 C 32.243 0.551,31.600 1.539,31.526 4.738 C 31.465 7.345,31.374 7.698,30.584 8.366 C 30.400 8.521,29.960 8.893,29.605 9.192 C 27.508 10.961,26.964 14.646,28.458 16.964 C 29.223 18.150,30.508 19.454,31.045 19.589 C 31.295 19.651,31.500 19.770,31.500 19.851 C 31.500 20.046,33.622 20.046,33.694 19.851 C 33.929 19.225,43.647 19.210,44.417 19.835 C 44.508 19.909,44.865 20.023,45.210 20.087 C 45.555 20.152,45.878 20.271,45.928 20.352 C 45.979 20.434,46.146 20.503,46.302 20.506 C 46.457 20.509,46.883 20.656,47.250 20.833 C 47.617 21.010,48.010 21.158,48.125 21.161 C 48.240 21.164,48.333 21.236,48.333 21.320 C 48.333 21.404,48.558 21.523,48.833 21.583 C 49.108 21.644,49.333 21.761,49.333 21.843 C 49.333 21.926,49.515 22.039,49.738 22.095 C 49.960 22.151,50.183 22.302,50.233 22.432 C 50.282 22.561,50.438 22.667,50.578 22.667 C 50.718 22.667,50.833 22.725,50.833 22.797 C 50.833 22.869,51.056 23.059,51.327 23.220 C 53.021 24.220,56.309 28.359,57.178 30.583 C 57.392 31.133,57.621 31.658,57.686 31.750 C 57.751 31.842,57.856 32.198,57.920 32.542 C 57.985 32.885,58.095 33.167,58.166 33.167 C 58.237 33.167,58.348 33.598,58.414 34.125 C 58.479 34.652,58.619 35.189,58.724 35.317 C 59.008 35.663,58.993 43.407,58.708 43.692 C 57.890 44.510,59.013 48.000,60.094 48.000 C 60.210 48.000,60.337 48.094,60.376 48.208 C 60.470 48.490,67.334 48.509,67.683 48.229 C 67.811 48.125,68.423 47.988,69.042 47.924 C 69.660 47.859,70.167 47.747,70.167 47.675 C 70.167 47.602,70.635 47.490,71.207 47.425 C 71.779 47.361,72.327 47.241,72.424 47.160 C 72.522 47.079,73.216 46.962,73.967 46.899 C 74.719 46.837,75.333 46.721,75.333 46.643 C 75.333 46.564,75.630 46.500,75.993 46.500 C 76.794 46.500,77.444 45.895,77.605 45.002 C 77.663 44.680,77.781 44.327,77.867 44.218 C 77.954 44.109,78.066 43.434,78.118 42.718 C 78.169 42.002,78.280 41.329,78.365 41.222 C 78.546 40.992,78.521 37.327,78.337 37.083 C 78.268 36.992,78.168 36.318,78.116 35.587 C 78.063 34.855,77.940 34.230,77.843 34.198 C 77.746 34.165,77.667 34.053,77.667 33.949 C 77.667 33.599,76.452 32.673,75.847 32.562 C 75.519 32.501,75.209 32.389,75.159 32.313 C 75.109 32.236,74.415 32.124,73.617 32.062 C 72.819 32.001,72.167 31.887,72.167 31.809 C 72.167 31.731,71.931 31.667,71.643 31.667 C 70.802 31.667,69.700 31.030,69.578 30.474 C 69.520 30.213,69.404 30.000,69.320 30.000 C 69.236 30.000,69.166 29.869,69.166 29.708 C 69.165 29.548,69.060 29.215,68.931 28.970 C 68.803 28.724,68.648 28.292,68.586 28.011 C 68.524 27.730,68.404 27.500,68.320 27.500 C 68.236 27.500,68.167 27.350,68.167 27.166 C 68.167 26.982,68.017 26.552,67.833 26.210 C 67.650 25.868,67.500 25.493,67.500 25.377 C 67.500 25.262,67.433 25.167,67.352 25.167 C 67.270 25.167,67.155 24.904,67.094 24.583 C 67.034 24.263,66.913 24.000,66.826 24.000 C 66.738 24.000,66.667 23.700,66.667 23.333 C 66.667 22.967,66.742 22.667,66.833 22.667 C 66.925 22.667,67.000 22.528,67.000 22.359 C 67.000 22.189,67.226 21.795,67.502 21.484 C 67.778 21.172,68.323 20.560,68.714 20.124 C 69.329 19.438,69.616 18.973,70.358 17.461 C 70.544 17.081,70.540 16.211,70.352 16.095 C 70.271 16.045,70.155 15.740,70.095 15.419 C 70.034 15.097,69.931 14.833,69.864 14.833 C 69.798 14.833,69.633 14.656,69.497 14.440 C 68.699 13.168,65.586 9.982,64.171 8.989 C 63.853 8.766,63.491 8.490,63.368 8.375 C 63.244 8.260,63.042 8.167,62.919 8.167 C 62.795 8.167,62.663 8.073,62.625 7.958 C 62.577 7.814,62.126 7.750,61.149 7.750 C 59.709 7.750,59.582 7.796,58.831 8.583 C 56.355 11.181,56.130 11.333,54.776 11.333 C 54.268 11.333,53.812 11.267,53.762 11.186 C 53.711 11.104,53.407 10.988,53.085 10.928 C 52.763 10.868,52.500 10.764,52.500 10.699 C 52.500 10.575,52.385 10.505,51.149 9.879 C 50.432 9.515,48.456 8.833,48.120 8.833 C 48.027 8.833,47.680 8.555,47.350 8.216 L 46.750 7.598 46.707 5.091 C 46.643 1.360,46.084 0.602,43.083 0.173 C 41.741 -0.019,35.616 -0.023,34.500 0.167 " stroke="none" fill="#048474" fill-rule="evenodd"></path><path id="path1" d="M11.917 0.336 C 11.550 0.418,10.762 0.571,10.167 0.676 C 9.571 0.782,9.046 0.924,9.000 0.991 C 8.954 1.059,8.669 1.163,8.365 1.222 C 7.027 1.482,7.064 3.833,8.406 3.833 C 8.530 3.833,8.674 3.946,8.727 4.083 C 8.780 4.221,8.938 4.333,9.078 4.333 C 9.218 4.333,9.333 4.408,9.333 4.500 C 9.333 4.592,9.434 4.667,9.557 4.667 C 9.776 4.667,11.700 5.879,12.137 6.292 C 12.258 6.406,12.469 6.500,12.605 6.500 C 12.741 6.500,12.807 6.575,12.750 6.667 C 12.693 6.758,12.715 6.833,12.799 6.833 C 13.896 6.833,15.549 11.038,14.667 11.583 C 14.575 11.640,14.500 11.843,14.500 12.035 C 14.500 12.895,12.564 15.834,11.721 16.254 C 11.527 16.351,11.237 16.539,11.075 16.673 C 10.706 16.980,8.052 17.020,7.867 16.722 C 7.801 16.614,7.541 16.475,7.290 16.412 C 7.039 16.349,6.833 16.230,6.833 16.149 C 6.833 16.067,6.754 16.000,6.658 16.000 C 6.561 16.000,5.943 15.644,5.283 15.210 C 3.914 14.307,3.520 14.062,3.167 13.894 C 3.029 13.828,2.676 13.594,2.381 13.372 C 1.650 12.823,0.527 12.676,0.225 13.090 C -0.213 13.688,0.027 18.477,0.503 18.639 C 0.593 18.669,0.667 18.867,0.667 19.077 C 0.667 19.287,0.779 19.553,0.917 19.667 C 1.054 19.781,1.167 20.017,1.167 20.192 C 1.167 20.367,1.279 20.554,1.417 20.606 C 1.554 20.659,1.667 20.795,1.667 20.909 C 1.667 21.022,1.817 21.251,2.001 21.418 C 2.185 21.584,2.303 21.752,2.264 21.791 C 2.042 22.013,5.633 25.167,6.107 25.167 C 6.232 25.167,6.333 25.240,6.333 25.330 C 6.333 25.420,6.521 25.541,6.750 25.598 C 6.979 25.656,7.167 25.761,7.167 25.833 C 7.167 25.904,7.448 26.016,7.791 26.080 C 8.135 26.145,8.470 26.284,8.535 26.390 C 8.619 26.526,9.728 26.587,12.286 26.597 C 16.592 26.614,16.420 26.563,18.353 28.375 C 18.818 28.810,19.234 29.167,19.279 29.167 C 19.323 29.167,19.684 29.485,20.081 29.875 C 20.478 30.265,21.194 30.921,21.673 31.333 C 22.152 31.746,23.153 32.655,23.897 33.354 C 24.641 34.053,25.529 34.878,25.869 35.187 C 26.789 36.023,29.389 38.486,31.742 40.750 C 32.885 41.850,34.581 43.462,35.510 44.333 C 37.341 46.048,41.923 50.588,42.548 51.307 C 42.760 51.550,43.393 52.181,43.955 52.708 C 44.516 53.235,44.955 53.667,44.931 53.667 C 44.907 53.667,45.981 54.781,47.318 56.143 C 49.919 58.792,50.041 58.927,50.212 59.375 C 50.273 59.535,50.405 59.667,50.505 59.667 C 50.605 59.667,50.643 59.736,50.590 59.822 C 50.538 59.907,50.571 60.024,50.664 60.082 C 50.757 60.139,50.833 60.369,50.833 60.593 C 50.833 60.817,50.908 61.000,51.000 61.000 C 51.224 61.000,51.214 62.553,50.989 62.778 C 50.880 62.887,50.817 63.756,50.828 65.020 C 50.848 67.531,50.858 67.671,51.006 67.579 C 51.071 67.539,51.163 67.852,51.211 68.274 C 51.258 68.696,51.371 69.088,51.461 69.146 C 51.551 69.203,51.678 69.494,51.742 69.792 C 51.807 70.090,51.924 70.333,52.002 70.333 C 52.080 70.333,52.196 70.496,52.259 70.696 C 52.403 71.150,52.466 71.228,54.066 72.932 C 54.790 73.703,55.484 74.333,55.608 74.333 C 55.732 74.333,55.833 74.407,55.833 74.497 C 55.833 74.587,56.021 74.707,56.250 74.765 C 56.479 74.822,56.667 74.928,56.667 75.000 C 56.667 75.072,56.863 75.180,57.103 75.240 C 57.344 75.300,57.649 75.459,57.782 75.592 C 57.915 75.725,58.191 75.833,58.395 75.833 C 58.600 75.833,58.838 75.900,58.925 75.982 C 59.442 76.469,65.394 76.932,65.889 76.524 C 65.996 76.436,66.440 76.311,66.875 76.247 C 67.310 76.182,67.667 76.062,67.667 75.981 C 67.667 75.900,67.805 75.833,67.975 75.833 C 68.145 75.833,68.588 75.612,68.961 75.342 C 70.105 74.514,69.815 73.855,67.773 72.643 C 67.119 72.255,66.484 71.839,66.363 71.719 C 66.242 71.598,66.068 71.500,65.976 71.500 C 65.885 71.500,65.708 71.406,65.585 71.292 C 65.461 71.177,65.157 70.933,64.908 70.750 C 63.291 69.558,62.138 68.102,62.302 67.458 C 62.319 67.390,62.258 67.333,62.167 67.333 C 61.743 67.333,62.240 64.334,62.723 63.981 C 62.799 63.925,62.867 63.813,62.874 63.731 C 62.905 63.355,63.051 63.000,63.175 63.000 C 63.250 63.000,63.360 62.845,63.420 62.656 C 63.480 62.466,63.931 61.922,64.421 61.447 C 65.663 60.245,65.762 60.173,66.334 60.058 C 66.612 60.003,66.881 59.892,66.930 59.812 C 67.055 59.610,67.833 59.629,67.833 59.833 C 67.833 59.925,68.031 60.000,68.273 60.000 C 68.728 60.000,70.082 60.591,70.470 60.958 C 70.591 61.073,70.802 61.167,70.938 61.167 C 71.075 61.167,71.144 61.236,71.092 61.320 C 71.040 61.404,71.223 61.522,71.499 61.583 C 71.774 61.644,72.000 61.757,72.000 61.835 C 72.000 61.913,72.337 62.145,72.750 62.351 C 73.162 62.557,73.500 62.787,73.500 62.863 C 73.500 62.938,73.607 63.000,73.738 63.000 C 73.869 63.000,74.075 63.095,74.196 63.210 C 75.063 64.039,76.113 64.313,76.646 63.851 C 77.027 63.521,77.161 61.000,76.798 61.000 C 76.726 61.000,76.667 60.773,76.667 60.496 C 76.667 60.219,76.522 59.581,76.346 59.079 C 76.170 58.577,76.057 58.167,76.096 58.167 C 76.135 58.167,76.017 57.887,75.834 57.544 C 75.650 57.202,75.500 56.833,75.500 56.725 C 75.500 56.616,75.444 56.503,75.375 56.472 C 75.306 56.442,75.104 56.130,74.925 55.779 C 74.747 55.428,74.461 54.978,74.290 54.779 C 74.119 54.580,73.840 54.254,73.670 54.056 C 73.500 53.858,73.404 53.651,73.458 53.598 C 73.512 53.544,73.480 53.500,73.387 53.500 C 73.294 53.500,72.948 53.237,72.617 52.917 C 72.287 52.596,71.972 52.333,71.918 52.333 C 71.864 52.333,71.729 52.257,71.618 52.164 C 70.819 51.489,70.591 51.333,70.405 51.333 C 70.289 51.333,70.169 51.277,70.139 51.208 C 70.036 50.978,67.862 50.333,67.187 50.333 C 66.820 50.333,66.481 50.271,66.434 50.195 C 66.331 50.028,65.752 50.055,63.668 50.328 C 61.271 50.641,60.419 50.438,59.320 49.292 C 59.078 49.040,58.822 48.833,58.751 48.833 C 58.680 48.833,58.268 48.477,57.836 48.042 C 56.895 47.095,55.871 46.167,55.768 46.167 C 55.727 46.167,55.012 45.493,54.180 44.671 C 53.348 43.848,52.667 43.227,52.667 43.291 C 52.667 43.355,52.460 43.183,52.208 42.908 C 51.956 42.633,51.288 41.985,50.723 41.467 C 50.159 40.949,49.740 40.482,49.793 40.429 C 49.846 40.377,49.801 40.333,49.694 40.333 C 49.588 40.333,49.362 40.202,49.194 40.042 C 49.026 39.881,47.816 38.737,46.506 37.500 C 41.018 32.319,28.665 20.167,28.885 20.167 C 28.930 20.167,28.411 19.614,27.733 18.937 C 27.055 18.261,26.500 17.624,26.500 17.521 C 26.500 17.418,26.426 17.333,26.335 17.333 C 26.245 17.333,26.123 17.033,26.064 16.667 C 26.005 16.300,25.892 16.000,25.812 16.000 C 25.584 16.000,25.642 15.036,25.875 14.958 C 26.153 14.866,26.175 8.834,25.898 8.484 C 25.796 8.355,25.659 8.026,25.593 7.752 C 25.527 7.478,25.423 7.215,25.362 7.168 C 25.300 7.122,25.063 6.721,24.833 6.278 C 24.442 5.522,21.882 2.667,21.596 2.667 C 21.524 2.667,21.181 2.442,20.833 2.167 C 20.486 1.892,20.082 1.667,19.934 1.667 C 19.787 1.667,19.667 1.609,19.667 1.539 C 19.667 1.416,17.724 0.623,16.833 0.382 C 16.279 0.232,12.539 0.197,11.917 0.336 " stroke="none" fill="#04ac9c" fill-rule="evenodd"></path><path id="path2" d="M10.958 28.615 C 10.523 28.653,10.167 28.756,10.167 28.842 C 10.167 28.929,10.028 29.000,9.859 29.000 C 9.295 29.000,8.167 30.536,8.167 31.305 C 8.167 31.582,7.466 31.662,5.014 31.664 C 1.687 31.668,1.144 31.953,0.409 34.083 C -0.148 35.697,-0.079 44.779,0.492 44.970 C 0.588 45.002,0.667 45.155,0.667 45.310 C 0.667 45.629,1.585 46.500,1.920 46.500 C 2.040 46.500,2.169 46.590,2.206 46.700 C 2.253 46.843,2.959 46.905,4.647 46.917 C 6.130 46.927,7.065 47.000,7.136 47.111 C 7.199 47.208,7.415 47.340,7.618 47.403 C 8.038 47.534,8.833 48.415,8.833 48.749 C 8.833 48.872,8.913 48.999,9.011 49.031 C 9.108 49.064,9.231 49.408,9.283 49.795 C 9.335 50.183,9.434 50.500,9.503 50.500 C 9.572 50.500,9.679 50.837,9.741 51.250 C 9.803 51.663,9.924 52.000,10.010 52.000 C 10.096 52.000,10.167 52.099,10.167 52.219 C 10.167 52.340,10.383 52.862,10.647 53.378 C 10.911 53.895,11.086 54.358,11.036 54.409 C 10.986 54.459,11.032 54.500,11.139 54.500 C 12.018 54.500,11.175 56.741,9.708 58.303 C 9.135 58.913,8.667 59.499,8.667 59.605 C 8.667 59.711,8.554 59.841,8.417 59.894 C 8.279 59.946,8.167 60.098,8.167 60.231 C 8.167 60.364,8.094 60.497,8.006 60.528 C 7.352 60.753,7.791 63.466,8.616 64.304 C 8.736 64.425,8.833 64.590,8.833 64.671 C 8.833 64.835,13.092 69.167,13.253 69.167 C 13.309 69.167,13.720 69.481,14.166 69.865 C 16.126 71.554,18.337 71.545,19.624 69.843 C 20.517 68.663,21.657 67.684,22.271 67.568 C 23.488 67.340,25.559 67.780,26.002 68.362 C 26.048 68.423,26.292 68.525,26.543 68.588 C 26.795 68.651,27.000 68.764,27.000 68.838 C 27.000 68.913,27.230 69.024,27.511 69.086 C 27.792 69.148,28.224 69.303,28.470 69.431 C 28.715 69.560,29.014 69.665,29.133 69.666 C 29.812 69.669,31.167 70.796,31.167 71.358 C 31.167 71.528,31.230 71.667,31.308 71.667 C 31.386 71.667,31.499 72.418,31.559 73.337 C 31.620 74.256,31.739 75.137,31.825 75.296 C 31.911 75.454,32.027 75.865,32.082 76.208 C 32.137 76.552,32.253 76.833,32.341 76.833 C 32.428 76.833,32.500 76.935,32.500 77.059 C 32.500 77.408,33.210 78.092,33.931 78.438 C 34.753 78.831,44.164 78.926,44.292 78.542 C 44.330 78.427,44.460 78.333,44.580 78.333 C 44.764 78.333,45.239 77.850,45.995 76.894 C 46.077 76.790,46.197 76.415,46.261 76.061 C 46.325 75.706,46.436 75.341,46.509 75.248 C 46.582 75.156,46.694 74.593,46.759 73.998 C 46.824 73.403,46.933 72.842,47.001 72.750 C 47.070 72.658,47.178 72.152,47.241 71.625 C 47.305 71.098,47.419 70.667,47.494 70.667 C 47.569 70.667,47.681 70.464,47.743 70.217 C 47.805 69.970,48.198 69.258,48.616 68.635 L 49.376 67.503 49.254 64.163 C 49.073 59.217,48.873 58.915,45.783 58.920 C 44.450 58.923,43.777 58.988,43.694 59.122 C 43.591 59.289,41.001 59.637,40.625 59.534 C 40.556 59.515,40.500 59.575,40.500 59.667 C 40.500 59.870,38.057 59.894,37.932 59.692 C 37.884 59.614,37.153 59.502,36.307 59.442 C 35.461 59.382,34.727 59.267,34.676 59.186 C 34.625 59.106,34.190 58.987,33.708 58.921 C 33.227 58.856,32.875 58.734,32.926 58.651 C 32.978 58.568,32.846 58.497,32.635 58.494 C 32.423 58.491,31.950 58.344,31.583 58.167 C 31.217 57.990,30.823 57.842,30.708 57.839 C 30.594 57.836,30.500 57.764,30.500 57.680 C 30.500 57.596,30.275 57.477,30.000 57.417 C 29.725 57.356,29.500 57.246,29.500 57.171 C 29.500 57.097,29.313 56.989,29.083 56.932 C 28.854 56.874,28.667 56.753,28.667 56.663 C 28.667 56.574,28.589 56.500,28.493 56.500 C 28.273 56.500,27.293 55.818,27.117 55.542 C 27.043 55.427,26.900 55.333,26.798 55.333 C 26.586 55.333,23.213 51.945,22.833 51.351 C 22.696 51.135,22.502 50.874,22.403 50.770 C 22.207 50.563,22.008 50.211,21.250 48.728 C 20.975 48.190,20.694 47.725,20.625 47.694 C 20.556 47.664,20.500 47.490,20.500 47.308 C 20.500 47.127,20.410 46.814,20.299 46.614 C 19.942 45.967,19.514 44.605,19.400 43.750 C 19.339 43.292,19.210 42.817,19.112 42.694 C 18.857 42.373,18.875 36.601,19.132 36.292 C 19.770 35.523,19.387 30.938,18.665 30.694 C 18.574 30.664,18.499 30.551,18.497 30.444 C 18.477 29.095,15.018 28.255,10.958 28.615 " stroke="none" fill="#0464ac" fill-rule="evenodd"></path><path id="path3" d="M92.875 9.120 C 92.546 9.238,92.632 9.500,93.000 9.500 C 93.183 9.500,93.333 9.429,93.333 9.343 C 93.333 9.130,93.127 9.029,92.875 9.120 M91.167 25.333 L 91.167 37.667 93.000 37.667 L 94.833 37.667 94.833 33.083 L 94.833 28.500 97.740 28.500 C 99.339 28.500,100.687 28.435,100.736 28.355 C 100.786 28.276,101.203 28.161,101.663 28.100 C 102.123 28.038,102.500 27.916,102.500 27.828 C 102.500 27.739,102.645 27.667,102.821 27.667 C 102.998 27.667,103.245 27.564,103.371 27.439 C 103.496 27.313,103.764 27.158,103.966 27.094 C 104.168 27.030,104.333 26.908,104.333 26.822 C 104.333 26.737,104.417 26.667,104.520 26.667 C 104.762 26.667,106.000 25.429,106.000 25.186 C 106.000 25.084,106.074 25.000,106.163 25.000 C 106.253 25.000,106.374 24.813,106.432 24.583 C 106.489 24.354,106.597 24.167,106.671 24.167 C 106.746 24.167,106.860 23.923,106.924 23.625 C 106.989 23.327,107.124 23.031,107.225 22.967 C 107.549 22.761,107.460 18.349,107.120 17.750 C 106.963 17.475,106.835 17.156,106.834 17.042 C 106.834 16.927,106.758 16.833,106.667 16.833 C 106.575 16.833,106.500 16.715,106.500 16.570 C 106.500 16.227,104.606 14.333,104.263 14.333 C 104.118 14.333,104.000 14.264,104.000 14.180 C 104.000 14.096,103.775 13.977,103.500 13.917 C 103.225 13.856,103.000 13.742,103.000 13.664 C 103.000 13.585,102.644 13.474,102.208 13.418 C 101.773 13.362,101.286 13.245,101.127 13.158 C 100.964 13.069,98.737 13.000,96.002 13.000 L 91.167 13.000 91.167 25.333 M226.167 25.329 L 226.167 37.667 231.336 37.667 C 234.290 37.667,236.629 37.599,236.794 37.508 C 236.953 37.421,237.515 37.303,238.042 37.246 C 238.569 37.189,239.000 37.073,239.000 36.988 C 239.000 36.903,239.172 36.833,239.383 36.833 C 240.452 36.833,244.499 34.052,244.500 33.317 C 244.500 33.230,244.695 32.971,245.323 32.223 C 245.413 32.116,245.535 31.835,245.595 31.598 C 245.654 31.361,245.766 31.167,245.844 31.167 C 245.921 31.167,246.034 30.904,246.094 30.583 C 246.155 30.262,246.263 30.000,246.336 30.000 C 246.409 30.000,246.522 29.606,246.588 29.125 C 246.653 28.644,246.788 28.199,246.886 28.137 C 247.127 27.984,247.123 22.513,246.881 22.360 C 246.785 22.300,246.653 21.856,246.588 21.375 C 246.522 20.894,246.409 20.500,246.336 20.500 C 246.263 20.500,246.155 20.237,246.094 19.917 C 246.034 19.596,245.921 19.333,245.844 19.333 C 245.766 19.333,245.656 19.146,245.598 18.917 C 245.541 18.688,245.420 18.500,245.330 18.500 C 245.240 18.500,245.167 18.385,245.167 18.245 C 245.167 18.104,245.054 17.946,244.917 17.894 C 244.779 17.841,244.667 17.692,244.667 17.562 C 244.667 17.331,242.975 15.500,242.761 15.500 C 242.612 15.500,241.596 14.779,241.528 14.625 C 241.497 14.556,241.385 14.497,241.278 14.494 C 241.171 14.491,240.783 14.344,240.417 14.167 C 240.050 13.990,239.581 13.842,239.375 13.839 C 239.169 13.836,239.000 13.769,239.000 13.690 C 239.000 13.337,236.347 13.115,231.375 13.055 L 226.167 12.991 226.167 25.329 M145.500 16.417 L 145.500 19.000 144.500 19.000 L 143.500 19.000 143.500 20.333 L 143.500 21.667 144.496 21.667 L 145.492 21.667 145.550 27.542 C 145.606 33.142,145.779 35.333,146.165 35.333 C 146.238 35.333,146.340 35.504,146.393 35.713 C 146.491 36.107,147.351 37.167,147.572 37.167 C 147.641 37.167,147.888 37.317,148.121 37.500 C 148.354 37.683,148.722 37.833,148.939 37.833 C 149.156 37.833,149.333 37.908,149.333 38.000 C 149.333 38.214,153.873 38.226,154.092 38.012 C 154.179 37.927,154.512 37.833,154.833 37.804 L 155.417 37.750 155.465 36.208 L 155.513 34.667 154.756 34.667 C 154.340 34.667,154.000 34.742,154.000 34.833 C 154.000 35.144,151.046 35.037,150.539 34.708 C 149.684 34.154,149.476 33.830,149.380 32.903 C 149.329 32.406,149.222 32.000,149.143 32.000 C 149.065 32.000,149.000 29.675,149.000 26.833 L 149.000 21.667 152.250 21.667 L 155.500 21.667 155.500 20.333 L 155.500 19.000 152.250 19.000 L 149.000 19.000 149.000 16.417 L 149.000 13.833 147.250 13.833 L 145.500 13.833 145.500 16.417 M99.250 16.297 C 101.068 16.498,103.000 17.511,103.000 18.263 C 103.000 18.378,103.090 18.502,103.199 18.539 C 103.627 18.681,103.586 21.706,103.144 22.609 C 102.728 23.460,101.808 24.430,101.250 24.606 C 101.067 24.664,100.875 24.777,100.823 24.857 C 100.727 25.005,98.436 25.290,96.125 25.441 L 94.833 25.525 94.833 20.751 L 94.833 15.976 96.292 16.054 C 97.094 16.096,98.425 16.206,99.250 16.297 M234.820 16.318 C 235.958 16.412,236.966 16.566,237.061 16.661 C 237.156 16.756,237.335 16.833,237.459 16.833 C 238.076 16.833,240.432 18.199,241.041 18.910 C 241.847 19.851,242.000 20.069,242.000 20.276 C 242.000 20.399,242.069 20.500,242.153 20.500 C 242.238 20.500,242.356 20.725,242.417 21.000 C 242.477 21.275,242.590 21.500,242.667 21.500 C 242.744 21.500,242.859 21.988,242.923 22.583 C 242.987 23.179,243.105 23.667,243.186 23.667 C 243.267 23.667,243.333 24.417,243.333 25.333 C 243.333 26.250,243.269 27.000,243.190 27.000 C 243.112 27.000,242.999 27.465,242.940 28.032 C 242.880 28.600,242.763 29.107,242.679 29.159 C 242.595 29.211,242.475 29.459,242.412 29.710 C 242.349 29.961,242.238 30.167,242.167 30.167 C 242.095 30.167,241.989 30.354,241.932 30.583 C 241.874 30.813,241.753 31.000,241.663 31.000 C 241.574 31.000,241.500 31.094,241.500 31.210 C 241.500 31.399,240.992 31.900,239.849 32.838 C 239.629 33.019,239.348 33.167,239.224 33.167 C 239.101 33.167,239.000 33.238,239.000 33.326 C 239.000 33.413,238.737 33.534,238.417 33.594 C 238.096 33.655,237.833 33.766,237.833 33.842 C 237.833 33.918,237.477 34.027,237.042 34.085 C 236.606 34.142,236.100 34.255,235.917 34.336 C 235.733 34.416,234.290 34.532,232.708 34.593 L 229.833 34.705 229.833 25.341 L 229.833 15.976 231.292 16.061 C 232.094 16.108,233.681 16.223,234.820 16.318 M114.333 18.643 C 114.333 18.721,113.790 18.836,113.125 18.897 C 112.460 18.959,111.892 19.082,111.861 19.171 C 111.831 19.260,111.699 19.333,111.569 19.333 C 111.381 19.333,111.333 19.676,111.333 21.023 L 111.333 22.713 112.196 22.611 C 112.670 22.555,113.101 22.439,113.154 22.355 C 113.207 22.270,113.681 22.147,114.208 22.081 C 114.735 22.015,115.167 21.895,115.167 21.814 C 115.167 21.623,119.619 21.621,119.737 21.812 C 119.786 21.892,120.055 22.003,120.335 22.059 C 120.862 22.164,121.667 22.890,121.667 23.260 C 121.667 23.377,121.731 23.497,121.810 23.528 C 121.890 23.558,122.007 23.940,122.071 24.375 L 122.187 25.167 120.520 25.167 C 119.603 25.167,118.814 25.230,118.766 25.308 C 118.718 25.385,117.954 25.497,117.068 25.555 C 116.183 25.613,115.374 25.727,115.271 25.809 C 115.168 25.890,114.805 26.007,114.465 26.068 C 114.125 26.129,113.638 26.288,113.382 26.422 C 113.126 26.555,112.823 26.665,112.708 26.666 C 112.594 26.666,112.500 26.742,112.500 26.833 C 112.500 26.925,112.406 27.001,112.292 27.003 C 111.515 27.012,110.001 29.232,109.877 30.542 C 109.828 31.069,109.722 31.500,109.644 31.500 C 109.565 31.500,109.500 31.800,109.500 32.167 C 109.500 32.533,109.565 32.833,109.643 32.833 C 109.722 32.833,109.830 33.258,109.884 33.776 C 109.938 34.295,110.050 34.763,110.135 34.818 C 110.219 34.872,110.340 35.082,110.403 35.283 C 110.521 35.663,111.855 37.167,112.074 37.167 C 112.142 37.167,112.388 37.317,112.621 37.500 C 112.854 37.683,113.222 37.833,113.439 37.833 C 113.656 37.833,113.833 37.908,113.833 38.000 C 113.833 38.103,114.667 38.167,116.000 38.167 C 117.192 38.167,118.167 38.100,118.167 38.019 C 118.167 37.938,118.504 37.821,118.917 37.759 C 119.329 37.697,119.667 37.582,119.667 37.503 C 119.667 37.424,119.892 37.310,120.167 37.250 C 120.442 37.190,120.667 37.071,120.667 36.987 C 120.667 36.902,120.768 36.833,120.891 36.833 C 121.015 36.833,121.289 36.683,121.500 36.500 C 122.060 36.014,122.167 36.081,122.167 36.917 L 122.167 37.667 123.926 37.667 L 125.685 37.667 125.634 30.192 C 125.599 24.965,125.527 22.647,125.395 22.484 C 125.292 22.355,125.152 22.068,125.083 21.846 C 125.015 21.624,124.896 21.362,124.819 21.263 C 124.095 20.338,123.594 19.833,123.399 19.833 C 123.271 19.833,123.167 19.766,123.167 19.685 C 123.167 19.603,122.961 19.485,122.710 19.422 C 122.459 19.358,122.206 19.230,122.147 19.135 C 122.089 19.041,121.694 18.925,121.271 18.877 C 120.847 18.829,120.500 18.725,120.500 18.645 C 120.500 18.565,119.112 18.500,117.417 18.500 C 115.721 18.500,114.333 18.564,114.333 18.643 M166.097 18.645 C 166.048 18.724,165.706 18.838,165.337 18.897 C 164.968 18.956,164.667 19.072,164.667 19.155 C 164.667 19.239,164.442 19.356,164.167 19.417 C 163.892 19.477,163.667 19.596,163.667 19.680 C 163.667 19.764,163.558 19.833,163.425 19.833 C 163.292 19.833,163.123 19.936,163.050 20.062 C 162.667 20.717,162.167 20.547,162.167 19.761 L 162.167 19.000 160.417 19.000 L 158.667 19.000 158.667 28.333 L 158.667 37.667 160.417 37.667 L 162.167 37.667 162.167 30.870 C 162.167 24.131,162.170 24.072,162.520 23.828 C 162.715 23.694,162.962 23.508,163.070 23.417 C 163.429 23.112,164.646 22.500,164.894 22.500 C 165.029 22.500,165.170 22.406,165.208 22.292 C 165.259 22.140,165.825 22.083,167.275 22.083 L 169.273 22.083 169.871 22.736 C 170.461 23.379,170.667 23.924,170.667 24.844 C 170.667 25.102,170.742 25.360,170.833 25.417 C 170.940 25.482,171.000 27.724,171.000 31.593 L 171.000 37.667 172.676 37.667 L 174.352 37.667 174.301 30.055 C 174.261 24.151,174.203 22.429,174.042 22.375 C 173.927 22.337,173.833 22.226,173.833 22.129 C 173.833 21.846,173.121 20.500,172.970 20.500 C 172.895 20.500,172.833 20.402,172.833 20.282 C 172.833 19.986,171.419 19.009,170.815 18.888 C 170.546 18.834,170.286 18.725,170.237 18.645 C 170.120 18.456,166.214 18.456,166.097 18.645 M185.262 18.647 C 185.212 18.729,184.832 18.846,184.419 18.908 C 184.005 18.970,183.667 19.083,183.667 19.159 C 183.667 19.235,183.492 19.341,183.279 19.395 C 183.065 19.448,182.686 19.681,182.437 19.913 C 182.187 20.144,181.917 20.333,181.838 20.333 C 181.649 20.333,180.667 21.315,180.667 21.504 C 180.667 21.584,180.477 21.854,180.246 22.103 C 180.015 22.353,179.781 22.732,179.728 22.945 C 179.674 23.159,179.572 23.333,179.500 23.333 C 179.429 23.333,179.318 23.614,179.253 23.958 C 179.189 24.301,179.049 24.636,178.943 24.702 C 178.656 24.879,178.671 32.029,178.958 32.125 C 179.073 32.163,179.167 32.315,179.167 32.461 C 179.167 32.789,179.819 34.168,180.116 34.470 C 180.236 34.591,180.333 34.760,180.333 34.845 C 180.333 35.076,181.673 36.333,181.919 36.333 C 182.036 36.333,182.174 36.446,182.227 36.583 C 182.280 36.721,182.438 36.833,182.578 36.833 C 182.718 36.833,182.833 36.902,182.833 36.987 C 182.833 37.071,183.058 37.190,183.333 37.250 C 183.608 37.310,183.833 37.423,183.833 37.501 C 183.833 37.579,184.246 37.694,184.750 37.757 C 185.254 37.820,185.667 37.938,185.667 38.019 C 185.667 38.100,186.867 38.167,188.333 38.167 C 189.800 38.167,191.000 38.101,191.000 38.021 C 191.000 37.942,191.392 37.824,191.871 37.761 C 192.350 37.697,192.819 37.585,192.913 37.511 C 193.006 37.437,193.365 37.326,193.708 37.264 C 194.052 37.202,194.333 37.089,194.333 37.013 C 194.333 36.937,194.558 36.830,194.833 36.775 L 195.333 36.675 195.333 34.837 L 195.333 33.000 194.845 33.000 C 194.577 33.000,194.258 33.094,194.137 33.208 C 193.860 33.470,192.445 34.167,192.190 34.167 C 192.086 34.167,192.000 34.239,192.000 34.328 C 192.000 34.416,191.625 34.538,191.167 34.599 C 190.708 34.660,190.333 34.775,190.333 34.855 C 190.333 35.060,186.544 35.039,186.417 34.833 C 186.360 34.742,186.136 34.667,185.919 34.667 C 185.702 34.667,185.411 34.554,185.274 34.417 C 185.136 34.279,184.946 34.167,184.852 34.167 C 184.076 34.167,182.407 31.502,182.236 29.990 L 182.124 29.000 188.832 29.000 L 195.541 29.000 195.472 26.434 C 195.432 24.972,195.326 23.771,195.224 23.642 C 195.126 23.518,194.995 23.204,194.933 22.944 C 194.675 21.867,192.830 19.677,191.948 19.402 C 191.747 19.340,191.538 19.218,191.482 19.132 C 191.427 19.045,191.071 18.933,190.691 18.882 C 190.311 18.831,190.000 18.724,190.000 18.645 C 190.000 18.454,185.380 18.457,185.262 18.647 M255.000 18.643 C 255.000 18.721,254.456 18.836,253.792 18.897 C 253.127 18.959,252.558 19.082,252.528 19.171 C 252.497 19.260,252.366 19.333,252.236 19.333 C 252.048 19.333,252.000 19.676,252.000 21.023 L 252.000 22.713 252.952 22.601 C 253.476 22.539,253.946 22.421,253.997 22.339 C 254.048 22.256,254.484 22.136,254.965 22.072 C 255.447 22.008,255.881 21.891,255.930 21.811 C 256.048 21.622,260.500 21.623,260.500 21.813 C 260.500 21.893,260.726 22.004,261.003 22.059 C 261.879 22.234,262.550 23.131,262.736 24.375 L 262.854 25.167 261.177 25.167 C 260.255 25.167,259.500 25.230,259.500 25.308 C 259.500 25.386,258.737 25.496,257.805 25.553 C 256.872 25.610,256.066 25.722,256.013 25.803 C 255.960 25.883,255.608 25.998,255.230 26.056 C 254.853 26.115,254.328 26.276,254.064 26.414 C 253.800 26.552,253.490 26.665,253.375 26.666 C 253.260 26.666,253.167 26.742,253.167 26.833 C 253.167 26.925,253.073 27.001,252.958 27.003 C 252.715 27.006,251.378 28.367,250.936 29.063 C 250.768 29.327,250.591 29.985,250.542 30.526 C 250.493 31.067,250.388 31.549,250.310 31.598 C 250.123 31.713,250.123 32.833,250.310 32.833 C 250.389 32.833,250.497 33.258,250.551 33.776 C 250.604 34.295,250.717 34.763,250.802 34.818 C 250.886 34.872,251.007 35.082,251.069 35.283 C 251.202 35.707,252.533 37.167,252.788 37.167 C 252.882 37.167,253.051 37.277,253.163 37.412 C 253.275 37.547,253.622 37.706,253.933 37.764 C 254.245 37.823,254.500 37.937,254.500 38.019 C 254.500 38.215,258.786 38.211,258.908 38.015 C 258.959 37.931,259.301 37.812,259.668 37.750 C 260.034 37.688,260.333 37.575,260.333 37.499 C 260.333 37.422,260.558 37.310,260.833 37.250 C 261.108 37.190,261.333 37.071,261.333 36.987 C 261.333 36.902,261.440 36.833,261.571 36.833 C 261.702 36.833,261.909 36.735,262.030 36.616 C 262.599 36.053,262.833 36.142,262.833 36.922 L 262.833 37.667 264.593 37.667 L 266.352 37.667 266.300 30.208 C 266.253 23.487,266.219 22.701,265.958 22.250 C 265.799 21.975,265.668 21.656,265.668 21.542 C 265.667 21.427,265.597 21.333,265.511 21.333 C 265.426 21.333,265.304 21.172,265.242 20.974 C 265.104 20.539,264.372 19.833,264.059 19.833 C 263.935 19.833,263.833 19.764,263.833 19.680 C 263.833 19.596,263.608 19.477,263.333 19.417 C 263.058 19.356,262.833 19.241,262.833 19.161 C 262.833 19.081,262.552 18.970,262.208 18.915 C 261.865 18.860,261.453 18.744,261.294 18.658 C 260.933 18.461,255.000 18.447,255.000 18.643 M295.667 18.645 C 295.667 18.725,295.292 18.840,294.833 18.901 C 294.375 18.962,294.000 19.076,294.000 19.154 C 294.000 19.233,293.815 19.344,293.589 19.400 C 293.136 19.514,291.333 21.190,291.333 21.497 C 291.333 21.604,291.221 21.803,291.083 21.940 C 290.946 22.078,290.833 22.368,290.833 22.585 C 290.833 22.803,290.758 23.027,290.667 23.083 C 290.463 23.209,290.442 25.500,290.645 25.500 C 290.724 25.500,290.831 25.813,290.883 26.195 C 290.934 26.577,291.094 26.956,291.238 27.037 C 291.382 27.117,291.500 27.286,291.500 27.411 C 291.500 27.854,293.544 29.167,294.234 29.167 C 294.380 29.167,294.500 29.238,294.500 29.325 C 294.500 29.412,294.950 29.534,295.500 29.597 C 296.050 29.659,296.500 29.767,296.500 29.838 C 296.500 29.908,297.025 30.019,297.667 30.083 C 298.309 30.148,298.874 30.264,298.921 30.341 C 298.969 30.418,299.344 30.531,299.754 30.593 C 300.164 30.654,300.500 30.766,300.500 30.841 C 300.500 30.916,300.650 31.025,300.833 31.083 C 301.017 31.142,301.167 31.290,301.167 31.414 C 301.167 31.538,301.256 31.669,301.365 31.705 C 301.615 31.788,301.634 33.479,301.388 33.637 C 301.291 33.699,301.159 33.919,301.095 34.125 C 301.030 34.331,300.875 34.500,300.751 34.500 C 300.626 34.500,300.392 34.631,300.232 34.792 C 299.864 35.159,294.830 35.240,294.710 34.880 C 294.673 34.769,294.385 34.629,294.071 34.570 C 293.757 34.511,293.500 34.402,293.500 34.328 C 293.500 34.254,293.275 34.144,293.000 34.083 C 292.725 34.023,292.500 33.906,292.500 33.823 C 292.500 33.741,292.318 33.627,292.095 33.571 C 291.873 33.516,291.650 33.364,291.601 33.235 C 291.550 33.104,291.286 33.000,291.005 33.000 L 290.500 33.000 290.500 34.917 C 290.500 36.439,290.548 36.833,290.731 36.833 C 290.858 36.833,291.177 36.945,291.439 37.082 C 291.702 37.219,292.048 37.332,292.208 37.332 C 292.369 37.333,292.500 37.405,292.500 37.492 C 292.500 37.579,292.950 37.701,293.500 37.763 C 294.050 37.825,294.500 37.942,294.500 38.022 C 294.500 38.228,299.789 38.207,299.917 38.000 C 299.973 37.908,300.208 37.833,300.437 37.833 C 301.847 37.833,304.833 35.384,304.833 34.228 C 304.833 34.011,304.908 33.833,305.000 33.833 C 305.212 33.833,305.225 30.722,305.013 30.591 C 304.928 30.539,304.810 30.272,304.750 29.998 C 304.689 29.724,304.579 29.500,304.505 29.500 C 304.430 29.500,304.322 29.313,304.265 29.083 C 304.207 28.854,304.092 28.667,304.009 28.667 C 303.925 28.667,303.751 28.561,303.622 28.431 C 303.313 28.123,302.147 27.500,301.877 27.500 C 301.762 27.500,301.667 27.429,301.667 27.342 C 301.667 27.254,301.217 27.132,300.667 27.070 C 300.117 27.008,299.667 26.898,299.667 26.826 C 299.667 26.754,299.104 26.642,298.417 26.578 C 297.729 26.514,297.167 26.405,297.167 26.336 C 297.167 26.267,296.856 26.169,296.476 26.118 C 296.096 26.067,295.739 25.951,295.683 25.859 C 295.626 25.768,295.374 25.641,295.122 25.578 C 294.830 25.505,294.627 25.319,294.564 25.065 C 294.509 24.846,294.397 24.667,294.315 24.667 C 294.234 24.667,294.167 24.327,294.167 23.912 C 294.167 23.138,294.918 22.000,295.430 22.000 C 295.545 22.000,295.670 21.906,295.709 21.792 C 295.808 21.498,300.525 21.493,300.623 21.786 C 300.660 21.898,300.967 22.040,301.304 22.102 C 301.641 22.164,301.954 22.262,302.000 22.319 C 302.046 22.376,302.303 22.534,302.570 22.670 C 303.507 23.144,303.667 23.247,303.667 23.373 C 303.667 23.443,303.817 23.500,304.000 23.500 C 304.313 23.500,304.333 23.390,304.331 21.708 C 304.328 19.649,304.298 19.571,303.458 19.413 C 303.114 19.349,302.833 19.235,302.833 19.160 C 302.833 19.085,302.420 18.972,301.914 18.909 C 301.409 18.846,300.955 18.728,300.905 18.647 C 300.787 18.456,295.667 18.454,295.667 18.645 M131.167 28.333 L 131.167 37.667 132.917 37.667 L 134.667 37.667 134.669 31.125 C 134.672 24.334,134.676 24.287,135.292 24.095 C 135.498 24.030,135.667 23.908,135.667 23.822 C 135.667 23.737,135.782 23.667,135.922 23.667 C 136.062 23.667,136.220 23.554,136.273 23.417 C 136.326 23.279,136.455 23.166,136.559 23.166 C 136.664 23.165,136.975 23.037,137.250 22.882 C 137.645 22.659,138.302 22.586,140.375 22.535 L 143.000 22.471 143.000 20.735 L 143.000 19.000 140.833 19.000 C 139.642 19.000,138.667 19.066,138.667 19.148 C 138.667 19.229,138.329 19.346,137.917 19.408 C 137.504 19.470,137.167 19.583,137.167 19.659 C 137.167 19.735,136.979 19.844,136.750 19.902 C 136.521 19.959,136.333 20.080,136.333 20.170 C 136.333 20.260,136.218 20.333,136.078 20.333 C 135.938 20.333,135.780 20.446,135.727 20.583 C 135.674 20.721,135.532 20.833,135.411 20.833 C 135.290 20.833,135.073 20.951,134.929 21.095 C 134.690 21.333,134.667 21.250,134.667 20.179 L 134.667 19.000 132.917 19.000 L 131.167 19.000 131.167 28.333 M199.833 28.333 L 199.833 37.667 201.500 37.667 L 203.167 37.667 203.167 31.155 C 203.167 24.367,203.164 24.390,203.875 24.121 C 204.035 24.060,204.167 23.941,204.167 23.857 C 204.167 23.772,204.354 23.656,204.583 23.598 C 204.813 23.541,205.000 23.420,205.000 23.330 C 205.000 23.240,205.094 23.164,205.208 23.161 C 205.323 23.158,205.717 23.010,206.083 22.833 C 206.648 22.561,207.128 22.510,209.208 22.506 L 211.667 22.500 211.667 20.750 L 211.667 19.000 209.417 19.000 C 208.179 19.000,207.167 19.067,207.167 19.148 C 207.167 19.230,206.893 19.348,206.559 19.410 C 206.010 19.513,205.216 19.907,205.000 20.182 C 204.954 20.241,204.748 20.341,204.542 20.405 C 204.335 20.470,204.167 20.592,204.167 20.678 C 204.167 20.763,204.052 20.833,203.911 20.833 C 203.771 20.833,203.613 20.946,203.560 21.083 C 203.339 21.659,203.167 21.257,203.167 20.167 L 203.167 19.000 201.500 19.000 L 199.833 19.000 199.833 28.333 M269.833 19.407 C 269.833 19.631,269.903 19.856,269.987 19.909 C 270.072 19.961,270.190 20.228,270.250 20.502 C 270.311 20.776,270.421 21.000,270.495 21.000 C 270.569 21.000,270.679 21.262,270.739 21.583 C 270.799 21.904,270.913 22.167,270.993 22.167 C 271.072 22.167,271.188 22.467,271.250 22.833 C 271.312 23.200,271.428 23.500,271.507 23.500 C 271.587 23.500,271.701 23.762,271.761 24.083 C 271.821 24.404,271.937 24.667,272.019 24.667 C 272.100 24.667,272.167 24.760,272.168 24.875 C 272.168 24.990,272.274 25.285,272.402 25.530 C 272.530 25.776,272.686 26.208,272.748 26.489 C 272.809 26.770,272.921 27.000,272.995 27.000 C 273.069 27.000,273.179 27.262,273.239 27.583 C 273.299 27.904,273.420 28.167,273.508 28.167 C 273.595 28.167,273.669 28.298,273.672 28.458 C 273.675 28.619,273.823 29.050,274.000 29.417 C 274.177 29.783,274.325 30.215,274.328 30.375 C 274.331 30.535,274.408 30.667,274.500 30.667 C 274.592 30.667,274.669 30.760,274.672 30.875 C 274.675 30.990,274.823 31.383,275.000 31.750 C 275.177 32.117,275.325 32.510,275.328 32.625 C 275.331 32.740,275.399 32.833,275.479 32.833 C 275.559 32.833,275.672 33.133,275.731 33.500 C 275.789 33.867,275.908 34.167,275.994 34.167 C 276.081 34.167,276.201 34.429,276.261 34.750 C 276.321 35.071,276.428 35.333,276.498 35.333 C 276.747 35.333,276.940 36.571,276.777 37.125 C 276.690 37.423,276.563 37.667,276.494 37.667 C 276.426 37.667,276.321 37.929,276.261 38.250 C 276.201 38.571,276.080 38.833,275.992 38.833 C 275.905 38.833,275.831 38.927,275.828 39.042 C 275.825 39.156,275.677 39.550,275.500 39.917 C 275.323 40.283,275.175 40.715,275.172 40.875 C 275.169 41.035,275.098 41.167,275.013 41.167 C 274.929 41.167,274.810 41.392,274.750 41.667 C 274.690 41.942,274.577 42.167,274.500 42.167 C 274.423 42.167,274.307 42.410,274.242 42.708 C 274.178 43.006,274.065 43.288,273.992 43.335 C 273.919 43.382,273.808 43.626,273.745 43.877 L 273.631 44.333 275.565 44.333 C 277.174 44.333,277.500 44.291,277.500 44.083 C 277.500 43.946,277.575 43.833,277.667 43.833 C 277.758 43.833,277.836 43.702,277.839 43.542 C 277.842 43.381,277.990 42.950,278.167 42.583 C 278.344 42.217,278.491 41.785,278.494 41.625 C 278.497 41.465,278.575 41.333,278.667 41.333 C 278.758 41.333,278.833 41.254,278.833 41.158 C 278.833 40.998,279.079 40.399,279.762 38.891 C 279.893 38.603,280.000 38.246,280.000 38.100 C 280.000 37.953,280.075 37.833,280.167 37.833 C 280.258 37.833,280.333 37.754,280.333 37.658 C 280.333 37.486,280.871 36.174,281.151 35.661 C 281.228 35.521,281.344 35.164,281.409 34.870 C 281.473 34.575,281.592 34.333,281.672 34.333 C 281.753 34.333,281.867 34.071,281.928 33.750 C 281.988 33.429,282.104 33.167,282.185 33.167 C 282.267 33.167,282.333 33.088,282.333 32.991 C 282.333 32.832,282.579 32.232,283.262 30.725 C 283.393 30.436,283.500 30.080,283.500 29.933 C 283.500 29.787,283.575 29.667,283.667 29.667 C 283.758 29.667,283.833 29.588,283.833 29.491 C 283.833 29.332,284.079 28.732,284.762 27.225 C 284.893 26.936,285.000 26.580,285.000 26.433 C 285.000 26.287,285.072 26.167,285.159 26.167 C 285.247 26.167,285.367 25.904,285.428 25.583 C 285.488 25.262,285.588 25.000,285.650 25.000 C 285.711 25.000,285.944 24.475,286.167 23.833 C 286.389 23.192,286.624 22.667,286.689 22.667 C 286.754 22.667,286.860 22.423,286.924 22.125 C 286.989 21.827,287.092 21.546,287.154 21.500 C 287.306 21.387,288.000 19.529,288.000 19.235 C 288.000 19.047,287.634 19.000,286.167 19.000 C 284.648 19.000,284.333 19.043,284.333 19.250 C 284.333 19.387,284.259 19.500,284.169 19.500 C 284.078 19.500,283.956 19.800,283.897 20.167 C 283.839 20.533,283.725 20.833,283.645 20.833 C 283.565 20.833,283.500 20.912,283.500 21.009 C 283.500 21.161,283.291 21.681,282.667 23.083 C 282.012 24.553,281.833 25.016,281.833 25.241 C 281.833 25.383,281.762 25.500,281.674 25.500 C 281.587 25.500,281.466 25.762,281.406 26.083 C 281.345 26.404,281.246 26.667,281.184 26.667 C 281.122 26.667,280.889 27.192,280.667 27.833 C 280.444 28.475,280.203 29.000,280.131 29.000 C 280.059 29.000,279.997 29.131,279.994 29.292 C 279.991 29.452,279.844 29.883,279.667 30.250 C 279.490 30.617,279.342 31.048,279.339 31.208 C 279.336 31.369,279.258 31.500,279.167 31.500 C 279.075 31.500,278.994 31.631,278.987 31.792 C 278.977 32.018,278.955 32.027,278.891 31.833 C 278.846 31.696,278.744 31.433,278.664 31.250 C 278.584 31.067,278.364 30.565,278.176 30.134 C 277.987 29.704,277.833 29.273,277.833 29.176 C 277.833 29.079,277.768 29.000,277.688 29.000 C 277.608 29.000,277.495 28.700,277.436 28.333 C 277.377 27.967,277.264 27.667,277.183 27.667 C 277.103 27.667,276.988 27.404,276.928 27.083 C 276.867 26.762,276.753 26.500,276.672 26.500 C 276.592 26.500,276.476 26.270,276.414 25.989 C 276.352 25.708,276.197 25.276,276.069 25.030 C 275.940 24.785,275.835 24.452,275.834 24.292 C 275.834 24.131,275.758 24.000,275.667 24.000 C 275.575 24.000,275.497 23.906,275.494 23.792 C 275.491 23.677,275.344 23.283,275.167 22.917 C 274.990 22.550,274.842 22.156,274.839 22.042 C 274.836 21.927,274.768 21.833,274.688 21.833 C 274.609 21.833,274.504 21.589,274.456 21.291 C 274.407 20.992,274.196 20.355,273.986 19.874 L 273.604 19.000 271.719 19.000 L 269.833 19.000 269.833 19.407 M189.792 21.794 C 189.830 21.907,189.941 22.000,190.039 22.000 C 190.690 22.000,191.839 23.921,191.958 25.208 L 192.046 26.167 187.093 26.167 L 182.140 26.167 182.258 25.632 C 182.567 24.221,184.190 22.000,184.910 22.000 C 185.051 22.000,185.167 21.930,185.167 21.845 C 185.167 21.463,189.665 21.413,189.792 21.794 M122.167 30.589 C 122.167 32.742,122.134 33.023,121.875 33.121 C 121.715 33.182,121.484 33.329,121.363 33.449 C 121.242 33.569,121.036 33.667,120.905 33.667 C 120.774 33.667,120.667 33.728,120.667 33.804 C 120.667 33.979,119.298 34.667,118.950 34.667 C 118.805 34.667,118.640 34.742,118.583 34.833 C 118.456 35.040,115.167 35.057,115.167 34.851 C 115.167 34.770,114.977 34.655,114.746 34.597 C 114.140 34.445,113.656 33.895,113.549 33.237 C 113.498 32.924,113.391 32.667,113.312 32.667 C 113.232 32.667,113.167 32.367,113.167 32.000 C 113.167 31.633,113.232 31.333,113.313 31.333 C 113.393 31.333,113.504 31.106,113.559 30.828 C 113.666 30.295,114.393 29.500,114.774 29.500 C 114.898 29.500,115.000 29.425,115.000 29.333 C 115.000 29.242,115.094 29.166,115.208 29.166 C 115.323 29.165,115.638 29.049,115.909 28.908 C 116.180 28.767,116.989 28.606,117.707 28.550 C 118.424 28.495,119.051 28.386,119.099 28.308 C 119.147 28.230,119.857 28.167,120.677 28.167 L 122.167 28.167 122.167 30.589 M262.833 30.599 C 262.833 32.862,262.811 33.037,262.512 33.115 C 262.335 33.162,262.149 33.305,262.100 33.433 C 262.051 33.562,261.902 33.667,261.769 33.667 C 261.636 33.667,261.503 33.723,261.472 33.792 C 261.391 33.975,259.924 34.667,259.617 34.667 C 259.472 34.667,259.307 34.742,259.250 34.833 C 259.122 35.040,256.000 35.057,256.000 34.851 C 256.000 34.770,255.811 34.655,255.581 34.598 C 255.080 34.472,254.500 34.005,254.500 33.727 C 254.500 33.617,254.409 33.498,254.299 33.461 C 254.014 33.366,254.007 30.803,254.292 30.708 C 254.406 30.670,254.501 30.551,254.503 30.444 C 254.506 30.201,255.233 29.500,255.482 29.500 C 255.583 29.500,255.667 29.431,255.667 29.347 C 255.667 29.262,255.910 29.140,256.208 29.076 C 256.506 29.011,256.794 28.890,256.847 28.806 C 256.900 28.723,257.594 28.609,258.389 28.552 C 259.183 28.496,259.833 28.387,259.833 28.309 C 259.833 28.231,260.508 28.167,261.333 28.167 L 262.833 28.167 262.833 30.599 M148.833 58.917 L 148.833 68.500 151.167 68.500 L 153.500 68.500 153.500 66.324 C 153.500 64.201,153.511 64.135,153.958 63.574 C 154.428 62.986,154.833 62.824,154.833 63.224 C 154.833 63.348,154.983 63.622,155.167 63.833 C 155.350 64.045,155.500 64.312,155.500 64.428 C 155.500 64.544,155.556 64.664,155.625 64.694 C 155.815 64.779,156.500 65.796,156.500 65.993 C 156.500 66.089,156.570 66.167,156.655 66.167 C 156.741 66.167,156.863 66.332,156.927 66.534 C 156.992 66.736,157.128 66.996,157.230 67.111 C 157.686 67.626,157.800 67.798,157.908 68.138 C 158.046 68.573,163.667 68.725,163.667 68.293 C 163.667 68.070,162.498 66.286,162.292 66.194 C 162.223 66.164,162.167 66.030,162.167 65.898 C 162.167 65.765,162.061 65.616,161.932 65.566 C 161.802 65.516,161.651 65.294,161.595 65.071 C 161.539 64.849,161.420 64.667,161.330 64.667 C 161.240 64.667,161.167 64.552,161.167 64.411 C 161.167 64.271,161.054 64.113,160.917 64.060 C 160.779 64.008,160.667 63.871,160.667 63.758 C 160.667 63.576,160.510 63.347,159.836 62.549 C 159.743 62.438,159.667 62.281,159.667 62.199 C 159.667 62.069,159.488 61.821,158.836 61.049 C 158.558 60.718,158.641 60.341,159.083 59.931 C 159.313 59.719,159.500 59.491,159.500 59.425 C 159.500 59.359,159.744 59.055,160.042 58.748 C 160.726 58.043,161.874 56.697,162.054 56.389 C 162.129 56.260,162.410 55.929,162.679 55.655 C 163.699 54.611,163.497 54.500,160.571 54.500 L 157.974 54.500 157.487 54.987 C 157.219 55.255,157.000 55.551,157.000 55.646 C 157.000 55.740,156.901 55.877,156.779 55.950 C 156.658 56.023,156.377 56.346,156.154 56.667 C 155.932 56.987,155.656 57.310,155.542 57.383 C 155.427 57.457,155.333 57.594,155.333 57.688 C 155.333 57.782,155.108 58.084,154.833 58.359 C 154.558 58.634,154.333 58.928,154.333 59.013 C 154.333 59.173,153.729 59.833,153.583 59.833 C 153.537 59.833,153.500 57.471,153.500 54.583 L 153.500 49.333 151.167 49.333 L 148.833 49.333 148.833 58.917 M180.167 58.917 L 180.167 68.500 182.498 68.500 L 184.828 68.500 184.873 63.548 L 184.917 58.596 185.458 58.440 C 185.756 58.355,186.000 58.221,186.000 58.143 C 186.000 58.064,186.511 58.000,187.135 58.000 C 188.313 58.000,189.000 58.340,189.000 58.923 C 189.000 59.057,189.075 59.167,189.167 59.167 C 189.274 59.167,189.333 60.833,189.333 63.833 L 189.333 68.500 191.833 68.500 L 194.333 68.500 194.333 63.331 C 194.333 60.399,194.265 58.037,194.176 57.873 C 194.089 57.714,193.973 57.302,193.918 56.958 C 193.863 56.615,193.747 56.333,193.659 56.333 C 193.572 56.333,193.500 56.230,193.500 56.103 C 193.500 55.699,192.263 54.582,191.488 54.286 C 190.670 53.974,187.598 53.874,187.425 54.154 C 187.372 54.238,187.105 54.357,186.831 54.417 C 186.557 54.477,186.333 54.596,186.333 54.680 C 186.333 54.764,186.231 54.833,186.106 54.833 C 185.981 54.833,185.688 54.983,185.455 55.167 C 185.221 55.350,184.986 55.500,184.932 55.500 C 184.878 55.500,184.833 54.112,184.833 52.417 L 184.833 49.333 182.500 49.333 L 180.167 49.333 180.167 58.917 M89.833 50.500 C 89.833 50.775,89.900 51.000,89.981 51.000 C 90.062 51.000,90.180 51.411,90.242 51.914 C 90.305 52.417,90.419 52.867,90.496 52.914 C 90.573 52.962,90.687 53.375,90.750 53.833 C 90.813 54.291,90.926 54.704,91.000 54.750 C 91.074 54.796,91.187 55.209,91.250 55.667 C 91.313 56.125,91.427 56.538,91.504 56.586 C 91.581 56.633,91.695 57.083,91.758 57.586 C 91.820 58.089,91.928 58.500,91.998 58.500 C 92.067 58.500,92.173 58.875,92.234 59.333 C 92.295 59.792,92.410 60.167,92.489 60.167 C 92.569 60.167,92.686 60.617,92.750 61.167 C 92.814 61.717,92.925 62.167,92.997 62.167 C 93.069 62.167,93.180 62.579,93.243 63.083 C 93.306 63.587,93.418 64.000,93.493 64.000 C 93.567 64.000,93.680 64.411,93.742 64.914 C 93.805 65.417,93.919 65.867,93.996 65.914 C 94.073 65.962,94.187 66.375,94.250 66.834 C 94.313 67.292,94.433 67.667,94.516 67.667 C 94.599 67.667,94.667 67.854,94.667 68.083 L 94.667 68.500 97.498 68.500 L 100.329 68.500 100.436 67.833 C 100.495 67.467,100.601 67.167,100.672 67.167 C 100.743 67.167,100.853 66.717,100.917 66.167 C 100.981 65.617,101.093 65.167,101.167 65.167 C 101.241 65.167,101.354 64.792,101.417 64.334 C 101.480 63.875,101.594 63.462,101.671 63.414 C 101.747 63.367,101.861 62.917,101.924 62.414 C 101.987 61.911,102.099 61.500,102.174 61.500 C 102.248 61.500,102.361 61.087,102.424 60.583 C 102.487 60.079,102.596 59.667,102.667 59.667 C 102.737 59.667,102.846 59.255,102.909 58.753 C 103.048 57.641,103.277 57.437,103.430 58.287 C 103.492 58.633,103.602 58.992,103.673 59.083 C 103.744 59.175,103.855 59.607,103.920 60.044 C 103.985 60.480,104.098 60.874,104.170 60.919 C 104.243 60.964,104.354 61.375,104.417 61.834 C 104.480 62.292,104.591 62.667,104.663 62.667 C 104.736 62.667,104.846 63.078,104.909 63.581 C 104.972 64.083,105.086 64.534,105.163 64.581 C 105.239 64.628,105.354 65.042,105.417 65.500 C 105.480 65.958,105.595 66.372,105.673 66.420 C 105.750 66.468,105.867 66.860,105.931 67.290 C 106.112 68.497,106.120 68.500,109.226 68.500 L 111.976 68.500 112.091 67.583 C 112.154 67.079,112.263 66.667,112.333 66.667 C 112.404 66.667,112.513 66.255,112.576 65.753 C 112.639 65.250,112.758 64.797,112.840 64.746 C 112.923 64.695,113.040 64.281,113.100 63.826 C 113.160 63.372,113.266 63.000,113.336 63.000 C 113.405 63.000,113.513 62.589,113.576 62.086 C 113.639 61.583,113.754 61.132,113.833 61.083 C 113.912 61.035,114.028 60.583,114.091 60.081 C 114.154 59.578,114.264 59.167,114.337 59.167 C 114.409 59.167,114.520 58.792,114.583 58.334 C 114.646 57.875,114.761 57.462,114.837 57.414 C 114.914 57.367,115.028 56.917,115.091 56.414 C 115.154 55.911,115.262 55.500,115.331 55.500 C 115.400 55.500,115.506 55.128,115.567 54.674 C 115.627 54.219,115.749 53.802,115.838 53.747 C 115.927 53.692,116.000 53.501,116.000 53.323 C 116.000 53.146,116.112 53.000,116.250 53.000 C 116.555 53.000,116.569 52.773,116.292 52.326 C 116.139 52.079,116.133 51.958,116.271 51.870 C 116.375 51.804,116.513 51.356,116.579 50.875 L 116.698 50.000 114.105 50.000 L 111.511 50.000 111.401 50.833 C 111.340 51.292,111.234 51.667,111.165 51.667 C 111.095 51.667,110.987 52.154,110.923 52.750 C 110.859 53.346,110.745 53.833,110.670 53.833 C 110.594 53.833,110.480 54.283,110.417 54.834 C 110.353 55.384,110.240 55.871,110.167 55.917 C 110.093 55.962,109.981 56.450,109.917 57.000 C 109.853 57.550,109.739 58.039,109.663 58.085 C 109.588 58.132,109.474 58.657,109.410 59.252 C 109.347 59.847,109.228 60.333,109.147 60.333 C 109.066 60.333,108.991 60.577,108.981 60.875 C 108.970 61.173,108.927 61.285,108.885 61.125 C 108.843 60.965,108.747 60.833,108.671 60.833 C 108.595 60.833,108.481 60.383,108.417 59.833 C 108.353 59.283,108.242 58.833,108.170 58.833 C 108.097 58.833,107.987 58.422,107.924 57.919 C 107.861 57.417,107.749 56.968,107.674 56.921 C 107.600 56.875,107.487 56.425,107.424 55.921 C 107.362 55.418,107.249 54.968,107.174 54.921 C 107.100 54.875,106.987 54.425,106.924 53.921 C 106.862 53.418,106.746 52.965,106.667 52.917 C 106.588 52.868,106.472 52.417,106.409 51.914 C 106.346 51.411,106.229 51.000,106.147 51.000 C 106.066 51.000,106.000 50.775,106.000 50.500 L 106.000 50.000 103.457 50.000 C 100.564 50.000,100.623 49.972,100.407 51.434 C 100.341 51.883,100.235 52.288,100.171 52.333 C 100.107 52.379,99.961 52.829,99.848 53.333 C 99.735 53.837,99.516 54.813,99.363 55.500 C 99.209 56.188,99.032 56.829,98.968 56.926 C 98.905 57.023,98.802 57.492,98.739 57.968 C 98.675 58.444,98.567 58.833,98.498 58.833 C 98.428 58.833,98.320 59.245,98.258 59.747 C 98.195 60.250,98.074 60.705,97.988 60.757 C 97.903 60.810,97.833 60.999,97.833 61.177 C 97.833 61.963,97.528 61.397,97.423 60.417 C 97.359 59.821,97.247 59.333,97.175 59.333 C 97.102 59.333,96.992 58.813,96.929 58.178 C 96.867 57.542,96.760 56.998,96.692 56.969 C 96.625 56.940,96.447 56.204,96.298 55.333 C 96.148 54.462,95.904 53.225,95.754 52.583 C 95.605 51.942,95.440 51.192,95.387 50.917 C 95.215 50.017,95.159 50.000,92.396 50.000 L 89.833 50.000 89.833 50.500 M98.167 53.177 C 98.167 53.365,98.242 53.473,98.333 53.417 C 98.425 53.360,98.500 53.206,98.500 53.073 C 98.500 52.941,98.425 52.833,98.333 52.833 C 98.242 52.833,98.167 52.988,98.167 53.177 M123.500 54.145 C 123.500 54.224,123.189 54.331,122.809 54.382 C 122.429 54.433,122.073 54.545,122.018 54.632 C 121.962 54.718,121.753 54.840,121.552 54.902 C 121.104 55.042,119.500 56.525,119.500 56.800 C 119.500 56.910,119.439 57.000,119.365 57.000 C 119.165 57.000,118.500 58.603,118.500 59.085 C 118.500 59.313,118.425 59.500,118.333 59.500 C 118.232 59.500,118.167 60.247,118.167 61.407 C 118.167 62.498,118.238 63.358,118.333 63.417 C 118.425 63.473,118.500 63.708,118.500 63.937 C 118.500 65.090,120.444 67.752,121.536 68.093 C 121.745 68.158,121.962 68.282,122.018 68.368 C 122.073 68.455,122.429 68.567,122.809 68.618 C 123.189 68.669,123.500 68.776,123.500 68.855 C 123.500 69.061,128.123 69.039,128.250 68.833 C 128.307 68.742,128.498 68.667,128.675 68.667 C 129.087 68.667,130.667 67.981,130.667 67.802 C 130.667 67.728,130.753 67.667,130.858 67.667 C 131.096 67.667,132.061 66.687,132.211 66.292 C 132.273 66.131,132.394 66.000,132.482 66.000 C 132.569 66.000,132.690 65.775,132.750 65.500 C 132.810 65.225,132.925 65.000,133.005 65.000 C 133.085 65.000,133.201 64.548,133.264 63.996 C 133.326 63.444,133.442 62.952,133.522 62.903 C 133.602 62.854,133.667 62.223,133.667 61.500 C 133.667 60.777,133.602 60.146,133.522 60.097 C 133.442 60.048,133.326 59.556,133.264 59.004 C 133.201 58.452,133.085 58.000,133.005 58.000 C 132.925 58.000,132.810 57.775,132.750 57.500 C 132.690 57.225,132.569 57.000,132.482 57.000 C 132.394 57.000,132.275 56.869,132.216 56.708 C 132.156 56.548,131.934 56.251,131.721 56.050 C 131.141 55.500,131.143 55.500,133.833 55.500 L 136.333 55.500 136.333 62.000 L 136.333 68.500 138.667 68.500 L 141.000 68.500 141.000 64.020 C 141.000 60.635,141.051 59.501,141.208 59.377 C 141.597 59.071,142.373 58.982,144.611 58.989 L 146.843 58.996 146.796 56.790 L 146.750 54.583 145.434 54.534 C 144.506 54.500,143.958 54.561,143.575 54.743 C 143.277 54.884,142.951 55.000,142.850 55.000 C 142.749 55.000,142.667 55.067,142.667 55.149 C 142.667 55.230,142.492 55.341,142.279 55.395 C 142.065 55.448,141.690 55.678,141.445 55.905 L 141.000 56.317 141.000 55.409 L 141.000 54.500 138.667 54.500 C 136.721 54.500,136.333 54.541,136.333 54.746 C 136.333 54.951,135.871 55.000,133.542 55.038 C 130.989 55.079,129.833 54.956,129.833 54.640 C 129.833 54.574,129.495 54.470,129.081 54.408 C 128.668 54.346,128.288 54.229,128.238 54.147 C 128.120 53.957,123.500 53.954,123.500 54.145 M169.167 54.145 C 169.167 54.225,168.792 54.340,168.333 54.401 C 167.875 54.462,167.500 54.576,167.500 54.654 C 167.500 54.733,167.313 54.844,167.083 54.902 C 166.854 54.959,166.667 55.080,166.667 55.170 C 166.667 55.260,166.580 55.333,166.475 55.333 C 166.191 55.333,165.227 56.380,165.081 56.846 C 165.012 57.068,164.875 57.301,164.778 57.363 C 164.556 57.506,164.570 60.336,164.794 60.480 C 164.883 60.537,165.012 60.764,165.081 60.985 C 165.235 61.480,166.284 62.473,166.792 62.605 C 166.998 62.659,167.167 62.764,167.167 62.839 C 167.167 62.915,167.579 63.028,168.083 63.091 C 168.587 63.154,169.000 63.265,169.000 63.338 C 169.000 63.412,169.563 63.524,170.250 63.589 C 170.938 63.653,171.500 63.764,171.500 63.834 C 171.500 63.905,171.762 64.012,172.083 64.072 C 172.770 64.201,172.886 64.738,172.331 65.213 C 171.950 65.540,168.774 65.642,168.583 65.333 C 168.527 65.242,168.312 65.167,168.107 65.167 C 167.902 65.167,167.222 64.904,166.595 64.583 C 165.969 64.262,165.241 64.000,164.978 64.000 L 164.500 64.000 164.500 66.004 L 164.500 68.008 165.000 68.108 C 165.275 68.163,165.500 68.270,165.500 68.346 C 165.500 68.422,165.950 68.534,166.500 68.597 C 167.050 68.659,167.500 68.775,167.500 68.855 C 167.500 69.061,172.955 69.040,173.083 68.833 C 173.140 68.742,173.380 68.667,173.617 68.667 C 174.000 68.667,175.309 68.128,175.750 67.788 C 177.241 66.641,177.667 65.779,177.667 63.908 C 177.667 63.134,177.600 62.500,177.518 62.500 C 177.436 62.500,177.321 62.305,177.261 62.067 C 177.034 61.165,175.458 60.111,174.027 59.904 C 173.600 59.842,173.175 59.735,173.083 59.666 C 172.992 59.597,172.410 59.488,171.792 59.424 C 171.173 59.359,170.667 59.247,170.667 59.174 C 170.667 59.101,170.451 58.999,170.188 58.946 C 169.482 58.805,169.376 58.334,169.948 57.877 C 170.441 57.482,173.355 57.298,173.572 57.648 C 173.622 57.729,173.936 57.847,174.270 57.909 C 174.604 57.972,175.166 58.206,175.518 58.428 C 175.871 58.651,176.387 58.833,176.663 58.833 L 177.167 58.833 177.167 56.833 L 177.167 54.833 176.764 54.833 C 176.542 54.833,176.335 54.755,176.303 54.659 C 176.271 54.563,175.815 54.440,175.289 54.385 C 174.763 54.331,174.333 54.222,174.333 54.143 C 174.333 54.065,173.171 54.000,171.750 54.000 C 170.329 54.000,169.167 54.065,169.167 54.145 M202.000 54.148 C 202.000 54.229,201.662 54.346,201.250 54.408 C 200.838 54.470,200.500 54.573,200.500 54.636 C 200.500 54.700,200.288 54.846,200.028 54.961 C 199.417 55.231,198.067 56.526,197.923 56.981 C 197.861 57.175,197.747 57.333,197.669 57.333 C 197.590 57.333,197.474 57.577,197.409 57.875 C 197.344 58.173,197.207 58.470,197.104 58.536 C 196.977 58.616,196.917 59.575,196.917 61.500 C 196.917 63.425,196.977 64.384,197.104 64.464 C 197.207 64.530,197.344 64.827,197.409 65.125 C 197.474 65.423,197.590 65.667,197.669 65.667 C 197.747 65.667,197.861 65.825,197.923 66.019 C 198.067 66.474,199.417 67.769,200.028 68.039 C 200.288 68.154,200.500 68.300,200.500 68.364 C 200.500 68.427,200.838 68.530,201.250 68.592 C 201.662 68.654,202.000 68.771,202.000 68.852 C 202.000 69.122,206.272 69.025,207.219 68.734 C 208.247 68.418,209.167 67.975,209.167 67.795 C 209.167 67.725,209.264 67.667,209.384 67.667 C 209.644 67.667,210.667 66.645,210.667 66.385 C 210.667 66.284,210.779 66.159,210.917 66.106 C 211.054 66.054,211.167 65.896,211.167 65.755 C 211.167 65.615,211.238 65.500,211.326 65.500 C 211.413 65.500,211.537 65.219,211.600 64.875 C 211.663 64.531,211.798 64.196,211.899 64.131 C 212.020 64.053,212.083 63.152,212.083 61.500 C 212.083 59.848,212.020 58.947,211.899 58.869 C 211.798 58.804,211.663 58.469,211.600 58.125 C 211.537 57.781,211.413 57.500,211.326 57.500 C 211.238 57.500,211.167 57.385,211.167 57.245 C 211.167 57.104,211.054 56.946,210.917 56.894 C 210.779 56.841,210.667 56.708,210.667 56.598 C 210.667 56.342,209.630 55.333,209.367 55.333 C 209.257 55.333,209.167 55.275,209.167 55.205 C 209.167 55.014,208.165 54.517,207.538 54.396 C 207.238 54.338,206.953 54.225,206.903 54.145 C 206.785 53.954,202.000 53.956,202.000 54.148 M222.167 54.167 C 222.167 54.258,222.022 54.333,221.845 54.333 C 221.668 54.333,221.421 54.436,221.296 54.561 C 221.170 54.687,220.887 54.847,220.667 54.917 C 220.446 54.987,220.150 55.161,220.008 55.304 C 219.775 55.538,219.745 55.512,219.698 55.032 L 219.646 54.500 217.323 54.500 L 215.000 54.500 215.000 63.917 L 215.000 73.333 217.333 73.333 L 219.667 73.333 219.667 70.851 L 219.667 68.369 220.322 68.562 C 220.683 68.669,221.033 68.811,221.100 68.878 C 221.271 69.049,224.607 69.031,224.961 68.858 C 225.120 68.780,225.550 68.575,225.917 68.402 C 227.420 67.696,228.926 65.659,229.358 63.750 C 229.619 62.593,229.726 59.846,229.525 59.428 C 229.434 59.239,229.316 58.772,229.264 58.392 C 229.097 57.186,227.625 54.833,227.037 54.833 C 226.925 54.833,226.833 54.764,226.833 54.680 C 226.833 54.596,226.608 54.477,226.333 54.417 C 226.058 54.356,225.833 54.238,225.833 54.153 C 225.833 54.069,225.008 54.000,224.000 54.000 C 222.889 54.000,222.167 54.066,222.167 54.167 M127.000 57.667 C 127.000 57.758,127.096 57.833,127.213 57.833 C 127.487 57.833,127.933 58.355,128.087 58.857 C 128.153 59.073,128.291 59.354,128.393 59.481 C 128.635 59.782,128.629 63.482,128.387 63.638 C 128.290 63.699,128.156 63.927,128.089 64.143 C 127.932 64.647,127.487 65.167,127.213 65.167 C 127.096 65.167,127.000 65.242,127.000 65.333 C 127.000 65.427,126.542 65.500,125.958 65.499 C 124.694 65.498,123.720 64.788,123.550 63.745 C 123.498 63.422,123.390 63.118,123.311 63.069 C 123.121 62.952,123.124 60.046,123.314 59.928 C 123.396 59.878,123.513 59.564,123.576 59.230 C 123.779 58.149,124.666 57.500,125.940 57.500 C 126.536 57.500,127.000 57.573,127.000 57.667 M205.865 57.856 C 207.572 59.072,207.446 65.167,205.713 65.167 C 205.596 65.167,205.500 65.242,205.500 65.333 C 205.500 65.622,203.616 65.529,203.172 65.218 C 202.410 64.685,202.130 64.295,202.043 63.648 C 201.995 63.292,201.891 63.000,201.811 63.000 C 201.732 63.000,201.667 62.325,201.667 61.500 C 201.667 60.675,201.732 60.000,201.812 60.000 C 201.892 60.000,202.006 59.695,202.066 59.321 C 202.319 57.738,204.511 56.892,205.865 57.856 M223.105 57.925 C 223.687 58.047,224.137 58.607,224.269 59.375 C 224.328 59.719,224.441 60.000,224.521 60.000 C 224.710 60.000,224.712 62.453,224.522 62.569 C 224.443 62.618,224.335 62.926,224.282 63.253 C 224.061 64.612,222.704 65.334,220.625 65.198 L 219.667 65.136 219.667 61.763 C 219.667 57.934,219.584 58.149,221.167 57.852 C 221.890 57.717,222.158 57.727,223.105 57.925 M114.944 72.278 C 114.668 72.554,114.901 72.667,115.750 72.667 C 116.454 72.667,116.667 72.609,116.667 72.417 C 116.667 72.157,115.184 72.038,114.944 72.278 " stroke="none" fill="#040404" fill-rule="evenodd"></path><path id="path4" d="" stroke="none" fill="#04185c" fill-rule="evenodd"></path></g></svg>